<?xml version="1.0" encoding="utf-8"?>
<svg version="1.1" id="Layer_1" xmlns="http://www.w3.org/2000/svg" xmlns:xlink="http://www.w3.org/1999/xlink" x="0px" y="0px"
	 viewBox="0 0 512 512" style="enable-background:new 0 0 512 512;" xml:space="preserve">
<style type="text/css">
	.st0{fill:url(#SVGID_1_);}
	.st1{fill:#68A8BC;}
	.st2{fill:#454849;}
	.st3{fill:#DB2B73;}
	.st4{fill:none;stroke:#FFFFFF;stroke-width:11;stroke-miterlimit:10;}
	.st5{fill:#AF1F5D;}
</style>
<linearGradient id="SVGID_1_" gradientUnits="userSpaceOnUse" x1="0.7315" y1="256" x2="512.7315" y2="256">
	<stop  offset="0" style="stop-color:#93D0F2"/>
	<stop  offset="1" style="stop-color:#47B6DC"/>
</linearGradient>
<circle class="st0" cx="256.7" cy="256" r="256"/>
<path class="st1" d="M370.7,410l-172,20.1c-12.3,1.4-23.3-7.3-24.8-19.6l-30.4-260.8c-1.4-12.3,7.3-23.3,19.6-24.8l172-20.1
	c12.3-1.4,23.3,7.3,24.8,19.6l30.4,260.8C391.7,397.5,382.9,408.6,370.7,410z"/>
<path class="st2" d="M360.5,404.8l-172,20.1c-12.3,1.4-23.3-7.3-24.8-19.6l-30.4-260.8c-1.4-12.3,7.3-23.3,19.6-24.8l172-20.1
	c12.3-1.4,23.3,7.3,24.8,19.6L380.1,380C381.6,392.3,372.8,403.4,360.5,404.8z"/>
<path class="st3" d="M359.1,392.3l-172,20.1c-12.3,1.4-23.3-7.3-24.8-19.6L131.9,132c-1.4-12.3,7.3-23.3,19.6-24.8l172-20.1
	c12.3-1.4,23.3,7.3,24.8,19.6l30.4,260.8C380.1,379.8,371.3,390.8,359.1,392.3z"/>
<path class="st4" d="M162.7,166.2c17.6-6.6,10.7,0.6,19.2-10.2c8.5-10.8,13.9-3.6,16.6,0c2.7,3.6,13.9,4.8,25.1-5.7
	c6.4,9.3,17.3,3.3,23.1,0s21.3-0.3,29.8,0c8.5,0.3,40.6-13.6,40.6-13.6"/>
<path class="st4" d="M170.2,231.4c12.8-13.3,16.4-16.1,16.4-16.1s-1.4,9.2,11.4,10.4c6.1,0.6,17.2-2.6,26.7-4.4
	c10.5-2.1,19.4-3.1,23.5-6c7.8-5.6,13.5-0.8,22.8,2.4c9.3,3.2,21-10.4,21-10.4s2.5,2,5.7,2.8c3.2,0.8,17.8-0.4,17.8-0.4l11.4-5.2"/>
<path class="st4" d="M180.3,297.7l14.6,2.4c0,0,11.6-7.5,24.2-10.8c10.9-2.9,23-1.6,24.9-2.4c4.3-1.6,36.7-5.2,38.8-3.6
	c2.1,1.6,8.2,4.4,12.5-0.4c4.3-4.8,15.3-12.9,17.5-9.6c2.1,3.2,16.7,1.2,16.7,1.2l8.5-3.6"/>
<path class="st4" d="M186.1,364.7c7.5-4.8,35.3-4.8,35.3-4.8s14.2,0,17.5-2.4c3.2-2.4,13.5-6.8,14.6-6.4c1.1,0.4,11.8-3.2,12.8-2
	c1.1,1.2,9.6,3.6,9.6,3.6l15-7.2c0,0,0.4,4.8,10,0c9.6-4.8,17.5-6.8,19.9-5.2c2.5,1.6,5,2.4,8.5,2s18.2-2.6,18.2-2.6"/>
<path class="st5" d="M214.8,409.1c44.5-5.2,140.3-18.3,146.7-33c6.5-14.6,8.3-84.7,5.2-111.3c-3.1-26.5,12,102.6,12,102.6
	s2.6,22.2-19.6,24.8S214.8,409.1,214.8,409.1z"/>
<g>
</g>
<g>
</g>
<g>
</g>
<g>
</g>
<g>
</g>
<g>
</g>
</svg>
